<mxfile host="app.diagrams.net" agent="Mozilla/5.0 (Windows NT 10.0; Win64; x64) AppleWebKit/537.36 (KHTML, like Gecko) Chrome/130.0.0.0 Safari/537.36" version="24.8.4">
  <diagram name="Página-1" id="kCM9pdWz-IkWfiBM7LTc">
    <mxGraphModel dx="2577" dy="870" grid="1" gridSize="10" guides="1" tooltips="1" connect="1" arrows="1" fold="1" page="1" pageScale="1" pageWidth="827" pageHeight="1169" math="0" shadow="0">
      <root>
        <mxCell id="0" />
        <mxCell id="1" parent="0" />
        <mxCell id="UHAk6mx3vsKsI5M2bfA_-5" value="Usuario" style="swimlane;fontStyle=1;align=center;verticalAlign=top;childLayout=stackLayout;horizontal=1;startSize=26;horizontalStack=0;resizeParent=1;resizeParentMax=0;resizeLast=0;collapsible=1;marginBottom=0;whiteSpace=wrap;html=1;" parent="1" vertex="1">
          <mxGeometry x="-460" y="495" width="160" height="290" as="geometry" />
        </mxCell>
        <mxCell id="UHAk6mx3vsKsI5M2bfA_-6" value="+ nome&lt;div&gt;* matricola&lt;/div&gt;&lt;div&gt;* email&lt;/div&gt;&lt;div&gt;- senha&lt;/div&gt;" style="text;strokeColor=none;fillColor=none;align=left;verticalAlign=top;spacingLeft=4;spacingRight=4;overflow=hidden;rotatable=0;points=[[0,0.5],[1,0.5]];portConstraint=eastwest;whiteSpace=wrap;html=1;" parent="UHAk6mx3vsKsI5M2bfA_-5" vertex="1">
          <mxGeometry y="26" width="160" height="74" as="geometry" />
        </mxCell>
        <mxCell id="UHAk6mx3vsKsI5M2bfA_-7" value="" style="line;strokeWidth=1;fillColor=none;align=left;verticalAlign=middle;spacingTop=-1;spacingLeft=3;spacingRight=3;rotatable=0;labelPosition=right;points=[];portConstraint=eastwest;strokeColor=inherit;" parent="UHAk6mx3vsKsI5M2bfA_-5" vertex="1">
          <mxGeometry y="100" width="160" height="8" as="geometry" />
        </mxCell>
        <mxCell id="UHAk6mx3vsKsI5M2bfA_-8" value="- cadastrar usuario()&lt;div&gt;- alterar usuario()&lt;/div&gt;&lt;div&gt;- excluir usuario()&lt;/div&gt;&lt;div&gt;- cadastrar livro()&lt;div&gt;- alterar livro()&lt;/div&gt;&lt;div&gt;- excluir livro()&lt;/div&gt;&lt;div&gt;- cadastrar funcionario()&lt;div&gt;- alterar funcionario()&lt;/div&gt;&lt;div&gt;- excluir&amp;nbsp;funcionario()&lt;/div&gt;&lt;/div&gt;&lt;/div&gt;&lt;div&gt;- gerar_relatorio_multa()&lt;/div&gt;&lt;div&gt;&lt;br&gt;&lt;/div&gt;" style="text;strokeColor=none;fillColor=none;align=left;verticalAlign=top;spacingLeft=4;spacingRight=4;overflow=hidden;rotatable=0;points=[[0,0.5],[1,0.5]];portConstraint=eastwest;whiteSpace=wrap;html=1;" parent="UHAk6mx3vsKsI5M2bfA_-5" vertex="1">
          <mxGeometry y="108" width="160" height="182" as="geometry" />
        </mxCell>
        <mxCell id="UHAk6mx3vsKsI5M2bfA_-50" style="edgeStyle=none;rounded=0;orthogonalLoop=1;jettySize=auto;html=1;exitX=0.25;exitY=0;exitDx=0;exitDy=0;entryX=0;entryY=0.459;entryDx=0;entryDy=0;entryPerimeter=0;" parent="UHAk6mx3vsKsI5M2bfA_-5" source="UHAk6mx3vsKsI5M2bfA_-5" target="UHAk6mx3vsKsI5M2bfA_-6" edge="1">
          <mxGeometry relative="1" as="geometry">
            <mxPoint x="40" y="-50" as="targetPoint" />
            <Array as="points">
              <mxPoint x="40" y="-50" />
              <mxPoint x="-80" y="-50" />
              <mxPoint x="-80" y="60" />
            </Array>
          </mxGeometry>
        </mxCell>
        <mxCell id="UHAk6mx3vsKsI5M2bfA_-51" value="multar" style="edgeLabel;html=1;align=center;verticalAlign=middle;resizable=0;points=[];" parent="UHAk6mx3vsKsI5M2bfA_-50" vertex="1" connectable="0">
          <mxGeometry x="-0.2908" y="-1" relative="1" as="geometry">
            <mxPoint x="15" as="offset" />
          </mxGeometry>
        </mxCell>
        <mxCell id="xrKv8wFGvSTMqvWYk2P5-25" value="1" style="edgeLabel;html=1;align=center;verticalAlign=middle;resizable=0;points=[];" vertex="1" connectable="0" parent="UHAk6mx3vsKsI5M2bfA_-50">
          <mxGeometry x="-0.9263" y="1" relative="1" as="geometry">
            <mxPoint x="-9" as="offset" />
          </mxGeometry>
        </mxCell>
        <mxCell id="xrKv8wFGvSTMqvWYk2P5-26" value="*" style="edgeLabel;html=1;align=center;verticalAlign=middle;resizable=0;points=[];" vertex="1" connectable="0" parent="UHAk6mx3vsKsI5M2bfA_-50">
          <mxGeometry x="0.8891" y="1" relative="1" as="geometry">
            <mxPoint y="-9" as="offset" />
          </mxGeometry>
        </mxCell>
        <mxCell id="UHAk6mx3vsKsI5M2bfA_-9" value="Livro" style="swimlane;fontStyle=1;align=center;verticalAlign=top;childLayout=stackLayout;horizontal=1;startSize=26;horizontalStack=0;resizeParent=1;resizeParentMax=0;resizeLast=0;collapsible=1;marginBottom=0;whiteSpace=wrap;html=1;" parent="1" vertex="1">
          <mxGeometry x="210" y="495" width="160" height="128" as="geometry" />
        </mxCell>
        <mxCell id="UHAk6mx3vsKsI5M2bfA_-10" value="+ titulo&lt;div&gt;+ autor&lt;/div&gt;&lt;div&gt;+ data_publicacao&lt;/div&gt;&lt;div&gt;+ editora&lt;br&gt;+ quant_disponivel&lt;/div&gt;&lt;div&gt;+ isbn&lt;/div&gt;&lt;div&gt;&lt;br&gt;&lt;/div&gt;" style="text;strokeColor=none;fillColor=none;align=left;verticalAlign=top;spacingLeft=4;spacingRight=4;overflow=hidden;rotatable=0;points=[[0,0.5],[1,0.5]];portConstraint=eastwest;whiteSpace=wrap;html=1;" parent="UHAk6mx3vsKsI5M2bfA_-9" vertex="1">
          <mxGeometry y="26" width="160" height="94" as="geometry" />
        </mxCell>
        <mxCell id="UHAk6mx3vsKsI5M2bfA_-11" value="" style="line;strokeWidth=1;fillColor=none;align=left;verticalAlign=middle;spacingTop=-1;spacingLeft=3;spacingRight=3;rotatable=0;labelPosition=right;points=[];portConstraint=eastwest;strokeColor=inherit;" parent="UHAk6mx3vsKsI5M2bfA_-9" vertex="1">
          <mxGeometry y="120" width="160" height="8" as="geometry" />
        </mxCell>
        <mxCell id="UHAk6mx3vsKsI5M2bfA_-17" value="Emprestimo&lt;span style=&quot;color: rgba(0, 0, 0, 0); font-family: monospace; font-size: 0px; font-weight: 400; text-align: start; text-wrap-mode: nowrap;&quot;&gt;%3CmxGraphModel%3E%3Croot%3E%3CmxCell%20id%3D%220%22%2F%3E%3CmxCell%20id%3D%221%22%20parent%3D%220%22%2F%3E%3CmxCell%20id%3D%222%22%20value%3D%22Usuario%22%20style%3D%22swimlane%3BfontStyle%3D1%3Balign%3Dcenter%3BverticalAlign%3Dtop%3BchildLayout%3DstackLayout%3Bhorizontal%3D1%3BstartSize%3D26%3BhorizontalStack%3D0%3BresizeParent%3D1%3BresizeParentMax%3D0%3BresizeLast%3D0%3Bcollapsible%3D1%3BmarginBottom%3D0%3BwhiteSpace%3Dwrap%3Bhtml%3D1%3B%22%20vertex%3D%221%22%20parent%3D%221%22%3E%3CmxGeometry%20x%3D%22360%22%20y%3D%22190%22%20width%3D%22160%22%20height%3D%2286%22%20as%3D%22geometry%22%2F%3E%3C%2FmxCell%3E%3CmxCell%20id%3D%223%22%20value%3D%22%2B%20field%3A%20type%22%20style%3D%22text%3BstrokeColor%3Dnone%3BfillColor%3Dnone%3Balign%3Dleft%3BverticalAlign%3Dtop%3BspacingLeft%3D4%3BspacingRight%3D4%3Boverflow%3Dhidden%3Brotatable%3D0%3Bpoints%3D%5B%5B0%2C0.5%5D%2C%5B1%2C0.5%5D%5D%3BportConstraint%3Deastwest%3BwhiteSpace%3Dwrap%3Bhtml%3D1%3B%22%20vertex%3D%221%22%20parent%3D%222%22%3E%3CmxGeometry%20y%3D%2226%22%20width%3D%22160%22%20height%3D%2226%22%20as%3D%22geometry%22%2F%3E%3C%2FmxCell%3E%3CmxCell%20id%3D%224%22%20value%3D%22%22%20style%3D%22line%3BstrokeWidth%3D1%3BfillColor%3Dnone%3Balign%3Dleft%3BverticalAlign%3Dmiddle%3BspacingTop%3D-1%3BspacingLeft%3D3%3BspacingRight%3D3%3Brotatable%3D0%3BlabelPosition%3Dright%3Bpoints%3D%5B%5D%3BportConstraint%3Deastwest%3BstrokeColor%3Dinherit%3B%22%20vertex%3D%221%22%20parent%3D%222%22%3E%3CmxGeometry%20y%3D%2252%22%20width%3D%22160%22%20height%3D%228%22%20as%3D%22geometry%22%2F%3E%3C%2FmxCell%3E%3CmxCell%20id%3D%225%22%20value%3D%22%2B%20method(type)%3A%20type%22%20style%3D%22text%3BstrokeColor%3Dnone%3BfillColor%3Dnone%3Balign%3Dleft%3BverticalAlign%3Dtop%3BspacingLeft%3D4%3BspacingRight%3D4%3Boverflow%3Dhidden%3Brotatable%3D0%3Bpoints%3D%5B%5B0%2C0.5%5D%2C%5B1%2C0.5%5D%5D%3BportConstraint%3Deastwest%3BwhiteSpace%3Dwrap%3Bhtml%3D1%3B%22%20vertex%3D%221%22%20parent%3D%222%22%3E%3CmxGeometry%20y%3D%2260%22%20width%3D%22160%22%20height%3D%2226%22%20as%3D%22geometry%22%2F%3E%3C%2FmxCell%3E%3C%2Froot%3E%3C%2FmxGraphModel%3E&lt;/span&gt;" style="swimlane;fontStyle=1;align=center;verticalAlign=top;childLayout=stackLayout;horizontal=1;startSize=26;horizontalStack=0;resizeParent=1;resizeParentMax=0;resizeLast=0;collapsible=1;marginBottom=0;whiteSpace=wrap;html=1;" parent="1" vertex="1">
          <mxGeometry x="-120" y="510" width="160" height="130" as="geometry" />
        </mxCell>
        <mxCell id="UHAk6mx3vsKsI5M2bfA_-18" value="* data_emprestimo&lt;div&gt;* data_devolucao&lt;/div&gt;" style="text;strokeColor=none;fillColor=none;align=left;verticalAlign=top;spacingLeft=4;spacingRight=4;overflow=hidden;rotatable=0;points=[[0,0.5],[1,0.5]];portConstraint=eastwest;whiteSpace=wrap;html=1;" parent="UHAk6mx3vsKsI5M2bfA_-17" vertex="1">
          <mxGeometry y="26" width="160" height="44" as="geometry" />
        </mxCell>
        <mxCell id="UHAk6mx3vsKsI5M2bfA_-19" value="" style="line;strokeWidth=1;fillColor=none;align=left;verticalAlign=middle;spacingTop=-1;spacingLeft=3;spacingRight=3;rotatable=0;labelPosition=right;points=[];portConstraint=eastwest;strokeColor=inherit;" parent="UHAk6mx3vsKsI5M2bfA_-17" vertex="1">
          <mxGeometry y="70" width="160" height="8" as="geometry" />
        </mxCell>
        <mxCell id="UHAk6mx3vsKsI5M2bfA_-20" value="- calcular_multa()&lt;div&gt;- gerar_relatório_emp()&lt;/div&gt;" style="text;strokeColor=none;fillColor=none;align=left;verticalAlign=top;spacingLeft=4;spacingRight=4;overflow=hidden;rotatable=0;points=[[0,0.5],[1,0.5]];portConstraint=eastwest;whiteSpace=wrap;html=1;" parent="UHAk6mx3vsKsI5M2bfA_-17" vertex="1">
          <mxGeometry y="78" width="160" height="52" as="geometry" />
        </mxCell>
        <mxCell id="UHAk6mx3vsKsI5M2bfA_-41" value="" style="endArrow=none;html=1;rounded=0;exitX=1;exitY=0.5;exitDx=0;exitDy=0;entryX=0;entryY=0.5;entryDx=0;entryDy=0;" parent="1" source="UHAk6mx3vsKsI5M2bfA_-6" target="UHAk6mx3vsKsI5M2bfA_-18" edge="1">
          <mxGeometry width="50" height="50" relative="1" as="geometry">
            <mxPoint x="-150" y="645" as="sourcePoint" />
            <mxPoint x="-100" y="595" as="targetPoint" />
          </mxGeometry>
        </mxCell>
        <mxCell id="UHAk6mx3vsKsI5M2bfA_-43" value="realiza" style="edgeLabel;html=1;align=center;verticalAlign=middle;resizable=0;points=[];" parent="UHAk6mx3vsKsI5M2bfA_-41" vertex="1" connectable="0">
          <mxGeometry x="-0.0722" relative="1" as="geometry">
            <mxPoint x="7" as="offset" />
          </mxGeometry>
        </mxCell>
        <mxCell id="UHAk6mx3vsKsI5M2bfA_-46" value="1" style="edgeLabel;html=1;align=center;verticalAlign=middle;resizable=0;points=[];" parent="UHAk6mx3vsKsI5M2bfA_-41" vertex="1" connectable="0">
          <mxGeometry x="-0.6648" relative="1" as="geometry">
            <mxPoint x="-10" y="-13" as="offset" />
          </mxGeometry>
        </mxCell>
        <mxCell id="UHAk6mx3vsKsI5M2bfA_-48" value="*" style="edgeLabel;html=1;align=center;verticalAlign=middle;resizable=0;points=[];" parent="UHAk6mx3vsKsI5M2bfA_-41" vertex="1" connectable="0">
          <mxGeometry x="0.8074" y="-1" relative="1" as="geometry">
            <mxPoint x="-2" y="-14" as="offset" />
          </mxGeometry>
        </mxCell>
        <mxCell id="UHAk6mx3vsKsI5M2bfA_-42" value="" style="endArrow=none;html=1;rounded=0;exitX=1;exitY=0.5;exitDx=0;exitDy=0;entryX=-0.003;entryY=0.396;entryDx=0;entryDy=0;entryPerimeter=0;" parent="1" source="UHAk6mx3vsKsI5M2bfA_-18" target="UHAk6mx3vsKsI5M2bfA_-10" edge="1">
          <mxGeometry width="50" height="50" relative="1" as="geometry">
            <mxPoint x="-290" y="568" as="sourcePoint" />
            <mxPoint x="-110" y="568" as="targetPoint" />
          </mxGeometry>
        </mxCell>
        <mxCell id="UHAk6mx3vsKsI5M2bfA_-45" value="possui" style="edgeLabel;html=1;align=center;verticalAlign=middle;resizable=0;points=[];" parent="UHAk6mx3vsKsI5M2bfA_-42" vertex="1" connectable="0">
          <mxGeometry x="0.0146" relative="1" as="geometry">
            <mxPoint x="-6" as="offset" />
          </mxGeometry>
        </mxCell>
        <mxCell id="UHAk6mx3vsKsI5M2bfA_-47" value="1" style="edgeLabel;html=1;align=center;verticalAlign=middle;resizable=0;points=[];" parent="UHAk6mx3vsKsI5M2bfA_-42" vertex="1" connectable="0">
          <mxGeometry x="0.811" y="3" relative="1" as="geometry">
            <mxPoint x="-13" y="-10" as="offset" />
          </mxGeometry>
        </mxCell>
        <mxCell id="UHAk6mx3vsKsI5M2bfA_-49" value="*" style="edgeLabel;html=1;align=center;verticalAlign=middle;resizable=0;points=[];" parent="UHAk6mx3vsKsI5M2bfA_-42" vertex="1" connectable="0">
          <mxGeometry x="-0.7719" y="1" relative="1" as="geometry">
            <mxPoint y="-12" as="offset" />
          </mxGeometry>
        </mxCell>
        <mxCell id="UHAk6mx3vsKsI5M2bfA_-55" style="edgeStyle=none;rounded=0;orthogonalLoop=1;jettySize=auto;html=1;entryX=0;entryY=0.73;entryDx=0;entryDy=0;entryPerimeter=0;" parent="1" target="UHAk6mx3vsKsI5M2bfA_-6" edge="1">
          <mxGeometry relative="1" as="geometry">
            <mxPoint x="-480" y="635" as="targetPoint" />
            <Array as="points">
              <mxPoint x="-400" y="425" />
              <mxPoint x="-570" y="425" />
              <mxPoint x="-570" y="575" />
            </Array>
            <mxPoint x="-400" y="493" as="sourcePoint" />
          </mxGeometry>
        </mxCell>
        <mxCell id="UHAk6mx3vsKsI5M2bfA_-56" value="notificar_data_devolucao" style="edgeLabel;html=1;align=center;verticalAlign=middle;resizable=0;points=[];" parent="UHAk6mx3vsKsI5M2bfA_-55" vertex="1" connectable="0">
          <mxGeometry x="-0.327" y="3" relative="1" as="geometry">
            <mxPoint x="2" as="offset" />
          </mxGeometry>
        </mxCell>
        <mxCell id="xrKv8wFGvSTMqvWYk2P5-27" value="1" style="edgeLabel;html=1;align=center;verticalAlign=middle;resizable=0;points=[];" vertex="1" connectable="0" parent="UHAk6mx3vsKsI5M2bfA_-55">
          <mxGeometry x="-0.9645" relative="1" as="geometry">
            <mxPoint x="-10" as="offset" />
          </mxGeometry>
        </mxCell>
        <mxCell id="xrKv8wFGvSTMqvWYk2P5-28" value="1" style="edgeLabel;html=1;align=center;verticalAlign=middle;resizable=0;points=[];" vertex="1" connectable="0" parent="UHAk6mx3vsKsI5M2bfA_-55">
          <mxGeometry x="0.9149" y="-1" relative="1" as="geometry">
            <mxPoint y="-11" as="offset" />
          </mxGeometry>
        </mxCell>
        <mxCell id="3sXyhb00dvmN1LJqB3e7-4" value="Aluno" style="swimlane;fontStyle=1;align=center;verticalAlign=top;childLayout=stackLayout;horizontal=1;startSize=26;horizontalStack=0;resizeParent=1;resizeParentMax=0;resizeLast=0;collapsible=1;marginBottom=0;whiteSpace=wrap;html=1;" parent="1" vertex="1">
          <mxGeometry x="-680" y="945" width="160" height="34" as="geometry" />
        </mxCell>
        <mxCell id="3sXyhb00dvmN1LJqB3e7-6" value="" style="line;strokeWidth=1;fillColor=none;align=left;verticalAlign=middle;spacingTop=-1;spacingLeft=3;spacingRight=3;rotatable=0;labelPosition=right;points=[];portConstraint=eastwest;strokeColor=inherit;" parent="3sXyhb00dvmN1LJqB3e7-4" vertex="1">
          <mxGeometry y="26" width="160" height="8" as="geometry" />
        </mxCell>
        <mxCell id="3sXyhb00dvmN1LJqB3e7-8" value="Professor" style="swimlane;fontStyle=1;align=center;verticalAlign=top;childLayout=stackLayout;horizontal=1;startSize=26;horizontalStack=0;resizeParent=1;resizeParentMax=0;resizeLast=0;collapsible=1;marginBottom=0;whiteSpace=wrap;html=1;" parent="1" vertex="1">
          <mxGeometry x="-250" y="945" width="160" height="34" as="geometry" />
        </mxCell>
        <mxCell id="3sXyhb00dvmN1LJqB3e7-10" value="" style="line;strokeWidth=1;fillColor=none;align=left;verticalAlign=middle;spacingTop=-1;spacingLeft=3;spacingRight=3;rotatable=0;labelPosition=right;points=[];portConstraint=eastwest;strokeColor=inherit;" parent="3sXyhb00dvmN1LJqB3e7-8" vertex="1">
          <mxGeometry y="26" width="160" height="8" as="geometry" />
        </mxCell>
        <mxCell id="3sXyhb00dvmN1LJqB3e7-12" value="Funcionário" style="swimlane;fontStyle=1;align=center;verticalAlign=top;childLayout=stackLayout;horizontal=1;startSize=26;horizontalStack=0;resizeParent=1;resizeParentMax=0;resizeLast=0;collapsible=1;marginBottom=0;whiteSpace=wrap;html=1;" parent="1" vertex="1">
          <mxGeometry x="-460" y="945" width="160" height="60" as="geometry" />
        </mxCell>
        <mxCell id="3sXyhb00dvmN1LJqB3e7-14" value="" style="line;strokeWidth=1;fillColor=none;align=left;verticalAlign=middle;spacingTop=-1;spacingLeft=3;spacingRight=3;rotatable=0;labelPosition=right;points=[];portConstraint=eastwest;strokeColor=inherit;" parent="3sXyhb00dvmN1LJqB3e7-12" vertex="1">
          <mxGeometry y="26" width="160" height="8" as="geometry" />
        </mxCell>
        <mxCell id="3sXyhb00dvmN1LJqB3e7-15" value="+ confirmar_emprestimo()" style="text;strokeColor=none;fillColor=none;align=left;verticalAlign=top;spacingLeft=4;spacingRight=4;overflow=hidden;rotatable=0;points=[[0,0.5],[1,0.5]];portConstraint=eastwest;whiteSpace=wrap;html=1;" parent="3sXyhb00dvmN1LJqB3e7-12" vertex="1">
          <mxGeometry y="34" width="160" height="26" as="geometry" />
        </mxCell>
        <mxCell id="3sXyhb00dvmN1LJqB3e7-17" value="" style="endArrow=block;endSize=16;endFill=0;html=1;rounded=0;exitX=0.5;exitY=0;exitDx=0;exitDy=0;entryX=-0.001;entryY=1;entryDx=0;entryDy=0;entryPerimeter=0;" parent="1" source="3sXyhb00dvmN1LJqB3e7-4" target="UHAk6mx3vsKsI5M2bfA_-8" edge="1">
          <mxGeometry width="160" relative="1" as="geometry">
            <mxPoint x="-370" y="775" as="sourcePoint" />
            <mxPoint x="-210" y="775" as="targetPoint" />
          </mxGeometry>
        </mxCell>
        <mxCell id="3sXyhb00dvmN1LJqB3e7-18" value="" style="endArrow=block;endSize=16;endFill=0;html=1;rounded=0;exitX=0.5;exitY=0;exitDx=0;exitDy=0;entryX=0.501;entryY=1.009;entryDx=0;entryDy=0;entryPerimeter=0;" parent="1" source="3sXyhb00dvmN1LJqB3e7-12" target="UHAk6mx3vsKsI5M2bfA_-8" edge="1">
          <mxGeometry width="160" relative="1" as="geometry">
            <mxPoint x="-590" y="815" as="sourcePoint" />
            <mxPoint x="-390" y="736" as="targetPoint" />
          </mxGeometry>
        </mxCell>
        <mxCell id="3sXyhb00dvmN1LJqB3e7-19" value="" style="endArrow=block;endSize=16;endFill=0;html=1;rounded=0;exitX=0.5;exitY=0;exitDx=0;exitDy=0;entryX=0.999;entryY=1.004;entryDx=0;entryDy=0;entryPerimeter=0;" parent="1" source="3sXyhb00dvmN1LJqB3e7-8" target="UHAk6mx3vsKsI5M2bfA_-8" edge="1">
          <mxGeometry width="160" relative="1" as="geometry">
            <mxPoint x="-370" y="815" as="sourcePoint" />
            <mxPoint x="-300" y="735" as="targetPoint" />
          </mxGeometry>
        </mxCell>
        <mxCell id="3sXyhb00dvmN1LJqB3e7-20" value="Itemlivro" style="swimlane;fontStyle=1;align=center;verticalAlign=top;childLayout=stackLayout;horizontal=1;startSize=26;horizontalStack=0;resizeParent=1;resizeParentMax=0;resizeLast=0;collapsible=1;marginBottom=0;whiteSpace=wrap;html=1;" parent="1" vertex="1">
          <mxGeometry x="210" y="225" width="160" height="58" as="geometry" />
        </mxCell>
        <mxCell id="3sXyhb00dvmN1LJqB3e7-21" value="&lt;div&gt;&lt;br&gt;&lt;/div&gt;" style="text;strokeColor=none;fillColor=none;align=left;verticalAlign=top;spacingLeft=4;spacingRight=4;overflow=hidden;rotatable=0;points=[[0,0.5],[1,0.5]];portConstraint=eastwest;whiteSpace=wrap;html=1;" parent="3sXyhb00dvmN1LJqB3e7-20" vertex="1">
          <mxGeometry y="26" width="160" height="24" as="geometry" />
        </mxCell>
        <mxCell id="3sXyhb00dvmN1LJqB3e7-22" value="" style="line;strokeWidth=1;fillColor=none;align=left;verticalAlign=middle;spacingTop=-1;spacingLeft=3;spacingRight=3;rotatable=0;labelPosition=right;points=[];portConstraint=eastwest;strokeColor=inherit;" parent="3sXyhb00dvmN1LJqB3e7-20" vertex="1">
          <mxGeometry y="50" width="160" height="8" as="geometry" />
        </mxCell>
        <mxCell id="3sXyhb00dvmN1LJqB3e7-29" value="" style="endArrow=none;html=1;rounded=0;exitX=0.5;exitY=0;exitDx=0;exitDy=0;entryX=0.5;entryY=1;entryDx=0;entryDy=0;" parent="1" source="UHAk6mx3vsKsI5M2bfA_-9" target="3sXyhb00dvmN1LJqB3e7-20" edge="1">
          <mxGeometry width="50" height="50" relative="1" as="geometry">
            <mxPoint x="210" y="415" as="sourcePoint" />
            <mxPoint x="289.1999999999998" y="310.48199999999997" as="targetPoint" />
          </mxGeometry>
        </mxCell>
        <mxCell id="3sXyhb00dvmN1LJqB3e7-31" value="1" style="edgeLabel;html=1;align=center;verticalAlign=middle;resizable=0;points=[];" parent="3sXyhb00dvmN1LJqB3e7-29" vertex="1" connectable="0">
          <mxGeometry x="-0.6648" relative="1" as="geometry">
            <mxPoint x="-10" y="11" as="offset" />
          </mxGeometry>
        </mxCell>
        <mxCell id="3sXyhb00dvmN1LJqB3e7-33" value="*" style="edgeLabel;html=1;align=center;verticalAlign=middle;resizable=0;points=[];" parent="3sXyhb00dvmN1LJqB3e7-29" vertex="1" connectable="0">
          <mxGeometry x="0.7819" relative="1" as="geometry">
            <mxPoint x="-9" as="offset" />
          </mxGeometry>
        </mxCell>
        <mxCell id="3sXyhb00dvmN1LJqB3e7-34" value="" style="endArrow=none;html=1;rounded=0;exitX=0.75;exitY=0;exitDx=0;exitDy=0;entryX=0;entryY=1;entryDx=0;entryDy=0;" parent="1" source="UHAk6mx3vsKsI5M2bfA_-17" target="3sXyhb00dvmN1LJqB3e7-20" edge="1">
          <mxGeometry width="50" height="50" relative="1" as="geometry">
            <mxPoint x="300" y="505" as="sourcePoint" />
            <mxPoint x="210" y="296.0000000000002" as="targetPoint" />
          </mxGeometry>
        </mxCell>
        <mxCell id="3sXyhb00dvmN1LJqB3e7-35" value="1" style="edgeLabel;html=1;align=center;verticalAlign=middle;resizable=0;points=[];" parent="3sXyhb00dvmN1LJqB3e7-34" vertex="1" connectable="0">
          <mxGeometry x="-0.6648" relative="1" as="geometry">
            <mxPoint x="-15" y="1" as="offset" />
          </mxGeometry>
        </mxCell>
        <mxCell id="3sXyhb00dvmN1LJqB3e7-36" value="1" style="edgeLabel;html=1;align=center;verticalAlign=middle;resizable=0;points=[];" parent="3sXyhb00dvmN1LJqB3e7-34" vertex="1" connectable="0">
          <mxGeometry x="0.7819" relative="1" as="geometry">
            <mxPoint x="-9" y="-14" as="offset" />
          </mxGeometry>
        </mxCell>
        <mxCell id="3sXyhb00dvmN1LJqB3e7-41" value="" style="endArrow=none;html=1;rounded=0;exitX=0.5;exitY=0;exitDx=0;exitDy=0;entryX=1;entryY=0.5;entryDx=0;entryDy=0;" parent="1" source="xrKv8wFGvSTMqvWYk2P5-7" target="3sXyhb00dvmN1LJqB3e7-21" edge="1">
          <mxGeometry width="50" height="50" relative="1" as="geometry">
            <mxPoint x="600" y="465" as="sourcePoint" />
            <mxPoint x="370" y="295" as="targetPoint" />
            <Array as="points">
              <mxPoint x="600" y="265" />
            </Array>
          </mxGeometry>
        </mxCell>
        <mxCell id="3sXyhb00dvmN1LJqB3e7-44" value="Realizar" style="endArrow=none;html=1;rounded=0;entryX=-0.022;entryY=0.914;entryDx=0;entryDy=0;entryPerimeter=0;exitX=0.499;exitY=1.046;exitDx=0;exitDy=0;exitPerimeter=0;" parent="1" source="xrKv8wFGvSTMqvWYk2P5-10" target="3sXyhb00dvmN1LJqB3e7-50" edge="1">
          <mxGeometry x="0.036" y="1" width="50" height="50" relative="1" as="geometry">
            <mxPoint x="600" y="615" as="sourcePoint" />
            <mxPoint x="-300" y="735" as="targetPoint" />
            <Array as="points">
              <mxPoint x="600" y="685" />
            </Array>
            <mxPoint as="offset" />
          </mxGeometry>
        </mxCell>
        <mxCell id="3sXyhb00dvmN1LJqB3e7-47" value="1" style="text;strokeColor=none;align=center;fillColor=none;html=1;verticalAlign=middle;whiteSpace=wrap;rounded=0;" parent="1" vertex="1">
          <mxGeometry x="380" y="239" width="60" height="30" as="geometry" />
        </mxCell>
        <mxCell id="3sXyhb00dvmN1LJqB3e7-48" value="*" style="text;strokeColor=none;align=center;fillColor=none;html=1;verticalAlign=middle;whiteSpace=wrap;rounded=0;" parent="1" vertex="1">
          <mxGeometry x="550" y="455" width="60" height="30" as="geometry" />
        </mxCell>
        <mxCell id="3sXyhb00dvmN1LJqB3e7-49" value="*" style="text;strokeColor=none;align=center;fillColor=none;html=1;verticalAlign=middle;whiteSpace=wrap;rounded=0;" parent="1" vertex="1">
          <mxGeometry x="560" y="555" width="60" height="30" as="geometry" />
        </mxCell>
        <mxCell id="3sXyhb00dvmN1LJqB3e7-50" value="1" style="text;strokeColor=none;align=center;fillColor=none;html=1;verticalAlign=middle;whiteSpace=wrap;rounded=0;" parent="1" vertex="1">
          <mxGeometry x="-300" y="655" width="60" height="30" as="geometry" />
        </mxCell>
        <mxCell id="3sXyhb00dvmN1LJqB3e7-57" value="Colocar quantos para quantos!" style="text;strokeColor=none;align=center;fillColor=none;html=1;verticalAlign=middle;whiteSpace=wrap;rounded=0;" parent="1" vertex="1">
          <mxGeometry x="-560" y="325" width="190" height="30" as="geometry" />
        </mxCell>
        <mxCell id="xrKv8wFGvSTMqvWYk2P5-7" value="Reserva" style="swimlane;fontStyle=1;align=center;verticalAlign=top;childLayout=stackLayout;horizontal=1;startSize=26;horizontalStack=0;resizeParent=1;resizeParentMax=0;resizeLast=0;collapsible=1;marginBottom=0;whiteSpace=wrap;html=1;" vertex="1" parent="1">
          <mxGeometry x="520" y="485" width="160" height="60" as="geometry" />
        </mxCell>
        <mxCell id="xrKv8wFGvSTMqvWYk2P5-9" value="" style="line;strokeWidth=1;fillColor=none;align=left;verticalAlign=middle;spacingTop=-1;spacingLeft=3;spacingRight=3;rotatable=0;labelPosition=right;points=[];portConstraint=eastwest;strokeColor=inherit;" vertex="1" parent="xrKv8wFGvSTMqvWYk2P5-7">
          <mxGeometry y="26" width="160" height="8" as="geometry" />
        </mxCell>
        <mxCell id="xrKv8wFGvSTMqvWYk2P5-10" value="- gerar_relatorio_reser()" style="text;strokeColor=none;fillColor=none;align=left;verticalAlign=top;spacingLeft=4;spacingRight=4;overflow=hidden;rotatable=0;points=[[0,0.5],[1,0.5]];portConstraint=eastwest;whiteSpace=wrap;html=1;" vertex="1" parent="xrKv8wFGvSTMqvWYk2P5-7">
          <mxGeometry y="34" width="160" height="26" as="geometry" />
        </mxCell>
        <mxCell id="xrKv8wFGvSTMqvWYk2P5-12" value="Consultar_disponibilidade" style="endArrow=none;html=1;rounded=0;entryX=0.999;entryY=0.277;entryDx=0;entryDy=0;entryPerimeter=0;exitX=0.5;exitY=1;exitDx=0;exitDy=0;" edge="1" parent="1" source="UHAk6mx3vsKsI5M2bfA_-9" target="UHAk6mx3vsKsI5M2bfA_-8">
          <mxGeometry x="0.036" y="1" width="50" height="50" relative="1" as="geometry">
            <mxPoint x="610" y="556" as="sourcePoint" />
            <mxPoint x="-291" y="692" as="targetPoint" />
            <Array as="points">
              <mxPoint x="290" y="653" />
            </Array>
            <mxPoint as="offset" />
          </mxGeometry>
        </mxCell>
        <mxCell id="xrKv8wFGvSTMqvWYk2P5-13" value="1" style="edgeLabel;html=1;align=center;verticalAlign=middle;resizable=0;points=[];" vertex="1" connectable="0" parent="xrKv8wFGvSTMqvWYk2P5-12">
          <mxGeometry x="-0.7866" y="2" relative="1" as="geometry">
            <mxPoint x="-4" y="-10" as="offset" />
          </mxGeometry>
        </mxCell>
        <mxCell id="xrKv8wFGvSTMqvWYk2P5-14" value="*" style="edgeLabel;html=1;align=center;verticalAlign=middle;resizable=0;points=[];" vertex="1" connectable="0" parent="xrKv8wFGvSTMqvWYk2P5-12">
          <mxGeometry x="0.9307" relative="1" as="geometry">
            <mxPoint y="-8" as="offset" />
          </mxGeometry>
        </mxCell>
        <mxCell id="xrKv8wFGvSTMqvWYk2P5-15" value="" style="endArrow=none;html=1;rounded=0;exitX=0.75;exitY=0;exitDx=0;exitDy=0;entryX=0.75;entryY=0;entryDx=0;entryDy=0;" edge="1" parent="1" source="xrKv8wFGvSTMqvWYk2P5-7" target="UHAk6mx3vsKsI5M2bfA_-5">
          <mxGeometry width="50" height="50" relative="1" as="geometry">
            <mxPoint x="690" y="491" as="sourcePoint" />
            <mxPoint x="-390" y="165" as="targetPoint" />
            <Array as="points">
              <mxPoint x="640" y="165" />
              <mxPoint x="-340" y="165" />
            </Array>
          </mxGeometry>
        </mxCell>
        <mxCell id="xrKv8wFGvSTMqvWYk2P5-20" value="notificar_reserva" style="edgeLabel;html=1;align=center;verticalAlign=middle;resizable=0;points=[];" vertex="1" connectable="0" parent="xrKv8wFGvSTMqvWYk2P5-15">
          <mxGeometry x="-0.0823" relative="1" as="geometry">
            <mxPoint as="offset" />
          </mxGeometry>
        </mxCell>
        <mxCell id="xrKv8wFGvSTMqvWYk2P5-22" value="1" style="text;strokeColor=none;align=center;fillColor=none;html=1;verticalAlign=middle;whiteSpace=wrap;rounded=0;" vertex="1" parent="1">
          <mxGeometry x="-360" y="455" width="60" height="30" as="geometry" />
        </mxCell>
        <mxCell id="xrKv8wFGvSTMqvWYk2P5-24" value="*" style="text;strokeColor=none;align=center;fillColor=none;html=1;verticalAlign=middle;whiteSpace=wrap;rounded=0;" vertex="1" parent="1">
          <mxGeometry x="620" y="455" width="60" height="30" as="geometry" />
        </mxCell>
      </root>
    </mxGraphModel>
  </diagram>
</mxfile>
